#N canvas 227 254 1090 624 10;
#X msg 67 55 start;
#X msg 67 78 stop;
#X text 261 102 start playback;
#X text 261 124 stop it;
#X obj 47 102 readsf~ 1 1e+06;
#X msg 58 12 open ./youssef.aiff;
#X obj 47 131 hip~ 5;
#X obj 109 268 *~ 0.71;
#X obj 216 267 *~ 0.71;
#X obj 328 268 *~ 0.71;
#X obj 436 267 *~ 0.71;
#X obj 549 267 *~ 0.71;
#X obj 173 244 delwrite~ _2 17;
#X obj 172 290 delread~ _2 17;
#X obj 66 245 delwrite~ _1 17;
#X obj 65 291 delread~ _1 17;
#X obj 285 245 delwrite~ _3 17;
#X obj 284 291 delread~ _3 17;
#X obj 393 244 delwrite~ _4 17;
#X obj 392 290 delread~ _4 17;
#X obj 506 244 delwrite~ _5 17;
#X obj 505 290 delread~ _5 17;
#X obj 48 183 *~;
#X obj 175 122 osc~;
#X obj 176 168 *~;
#X obj 238 148 hsl 128 15 0 1 0 0 empty empty empty -2 -8 0 10 -262144
-1 -1 12700 1;
#X obj 190 83 hsl 128 15 1 1000 0 0 empty empty empty -2 -8 0 10 -262144
-1 -1 0 1;
#X obj 654 267 *~ 0.71;
#X obj 762 266 *~ 0.71;
#X obj 867 262 *~ 0.71;
#X obj 611 244 delwrite~ _6 17;
#X obj 610 290 delread~ _6 17;
#X obj 719 243 delwrite~ _7 17;
#X obj 718 289 delread~ _7 17;
#X obj 824 239 delwrite~ _8 17;
#X obj 823 285 delread~ _8 17;
#X obj 500 67 line;
#X msg 502 21 1000 \, 1 38000;
#X msg 542 51 0;
#X obj 333 20 bng 15 250 50 0 empty empty empty 17 7 0 10 -262144 -1
-1;
#X text 362 18 COMEcA;
#X obj 950 261 *~ 0.71;
#X obj 1049 264 *~ 0.71;
#X obj 927 239 delwrite~ _9 17;
#X obj 926 285 delread~ _9 17;
#X obj 1030 240 delwrite~ _10 17;
#X obj 1029 286 delread~ _10 17;
#X obj 107 552 *~ 0.71;
#X obj 214 551 *~ 0.71;
#X obj 326 552 *~ 0.71;
#X obj 434 551 *~ 0.71;
#X obj 547 551 *~ 0.71;
#X obj 652 551 *~ 0.71;
#X obj 760 550 *~ 0.71;
#X obj 865 546 *~ 0.71;
#X obj 948 545 *~ 0.71;
#X obj 1047 548 *~ 0.71;
#X obj 64 529 delwrite~ _11 17;
#X obj 63 575 delread~ _11 17;
#X obj 171 528 delwrite~ _12 17;
#X obj 170 574 delread~ _12 17;
#X obj 283 529 delwrite~ _13 17;
#X obj 282 575 delread~ _13 17;
#X obj 391 528 delwrite~ _14 17;
#X obj 390 574 delread~ _14 17;
#X obj 504 528 delwrite~ _15 17;
#X obj 503 574 delread~ _15 17;
#X obj 609 528 delwrite~ _16 17;
#X obj 608 574 delread~ _16 17;
#X obj 717 527 delwrite~ _17 17;
#X obj 716 573 delread~ _17 17;
#X obj 822 523 delwrite~ _18 17;
#X obj 821 569 delread~ _18 17;
#X obj 925 523 delwrite~ _19 17;
#X obj 924 569 delread~ _19 17;
#X obj 1028 524 delwrite~ _20 17;
#X obj 1027 570 delread~ _20 17;
#X floatatom 592 109 5 0 0 0 - - -;
#X obj 790 70 expr $f1 \; $f1/2 \; $f1/3 \; $f1/5 \;;
#X obj 28 498 ./main_dac~;
#X floatatom 209 113 5 0 0 0 - - -;
#X obj 210 190 sel 1;
#X obj 214 218 bng 15 250 50 0 empty empty empty 17 7 0 10 -262144
-1 -1;
#X text 632 110 Volume dos delays;
#X obj 128 161 bng 15 250 50 0 empty empty empty 17 7 0 10 -262144
-1 -1;
#X obj 349 54 t b b b b;
#X connect 0 0 4 0;
#X connect 1 0 4 0;
#X connect 4 0 6 0;
#X connect 5 0 4 0;
#X connect 6 0 22 0;
#X connect 7 0 12 0;
#X connect 8 0 16 0;
#X connect 8 0 79 0;
#X connect 9 0 18 0;
#X connect 9 0 79 1;
#X connect 10 0 20 0;
#X connect 10 0 79 0;
#X connect 11 0 30 0;
#X connect 11 0 79 1;
#X connect 13 0 8 0;
#X connect 15 0 7 0;
#X connect 15 0 79 1;
#X connect 17 0 9 0;
#X connect 19 0 10 0;
#X connect 21 0 11 0;
#X connect 22 0 14 0;
#X connect 22 0 79 0;
#X connect 23 0 24 0;
#X connect 24 0 22 1;
#X connect 25 0 24 1;
#X connect 26 0 23 0;
#X connect 26 0 80 0;
#X connect 27 0 32 0;
#X connect 27 0 79 0;
#X connect 28 0 34 0;
#X connect 28 0 79 1;
#X connect 29 0 43 0;
#X connect 29 0 79 0;
#X connect 31 0 27 0;
#X connect 33 0 28 0;
#X connect 35 0 29 0;
#X connect 36 0 26 0;
#X connect 37 0 36 0;
#X connect 39 0 85 0;
#X connect 41 0 45 0;
#X connect 42 0 79 1;
#X connect 44 0 41 0;
#X connect 46 0 42 0;
#X connect 47 0 59 0;
#X connect 47 0 43 0;
#X connect 47 0 79 0;
#X connect 48 0 61 0;
#X connect 48 0 34 0;
#X connect 48 0 79 1;
#X connect 49 0 63 0;
#X connect 49 0 32 0;
#X connect 49 0 79 0;
#X connect 50 0 65 0;
#X connect 50 0 32 0;
#X connect 50 0 79 1;
#X connect 51 0 67 0;
#X connect 51 0 30 0;
#X connect 51 0 79 0;
#X connect 52 0 69 0;
#X connect 52 0 20 0;
#X connect 52 0 79 1;
#X connect 53 0 71 0;
#X connect 53 0 18 0;
#X connect 53 0 79 0;
#X connect 54 0 73 0;
#X connect 54 0 16 0;
#X connect 54 0 79 1;
#X connect 55 0 75 0;
#X connect 55 0 12 0;
#X connect 55 0 79 0;
#X connect 56 0 14 0;
#X connect 56 0 79 1;
#X connect 58 0 47 0;
#X connect 60 0 48 0;
#X connect 62 0 49 0;
#X connect 64 0 50 0;
#X connect 66 0 51 0;
#X connect 68 0 52 0;
#X connect 70 0 53 0;
#X connect 72 0 54 0;
#X connect 74 0 55 0;
#X connect 76 0 56 0;
#X connect 77 0 78 0;
#X connect 78 0 7 1;
#X connect 78 0 11 1;
#X connect 78 0 41 1;
#X connect 78 0 49 1;
#X connect 78 0 53 1;
#X connect 78 1 8 1;
#X connect 78 1 27 1;
#X connect 78 1 42 1;
#X connect 78 1 50 1;
#X connect 78 1 54 1;
#X connect 78 2 9 1;
#X connect 78 2 28 1;
#X connect 78 2 47 1;
#X connect 78 2 51 1;
#X connect 78 2 55 1;
#X connect 78 3 10 1;
#X connect 78 3 29 1;
#X connect 78 3 48 1;
#X connect 78 3 52 1;
#X connect 78 3 56 1;
#X connect 80 0 81 0;
#X connect 81 0 82 0;
#X connect 82 0 79 3;
#X connect 85 0 37 0;
#X connect 85 1 0 0;
#X connect 85 2 79 2;
#X connect 85 3 5 0;
