#N canvas 386 102 450 300 10;
#X obj 122 62 inlet~;
#X obj 205 60 inlet~;
#X obj 123 109 dac~;
#X obj 218 230 writesf~ 2;
#X msg 292 82 open -bytes 3 ./delay.wav;
#X obj 312 24 inlet;
#X obj 291 51 t b b;
#X obj 360 24 inlet;
#X msg 304 108 stop;
#X msg 256 104 start;
#X obj 209 172 *~ 0.71;
#X obj 154 180 *~ 0.71;
#X connect 0 0 2 0;
#X connect 0 0 11 0;
#X connect 1 0 2 1;
#X connect 1 0 10 0;
#X connect 4 0 3 0;
#X connect 5 0 6 0;
#X connect 6 0 9 0;
#X connect 6 1 4 0;
#X connect 7 0 8 0;
#X connect 8 0 3 0;
#X connect 9 0 3 0;
#X connect 10 0 3 1;
#X connect 11 0 3 0;
